<svg id="图层_1" data-name="图层 1" xmlns="http://www.w3.org/2000/svg" viewBox="0 0 164 164"><defs><style>.cls-1{fill:#007f89;}.cls-2{fill:#004584;}.cls-3{fill:#e0002a;}</style></defs><title>画板 12-500</title><path class="cls-1" d="M46.13,64.1a.33.33,0,0,0-.39.35c.16,2.11.07,3.78.07,5.69a44.56,44.56,0,0,1-.34,5.64.32.32,0,0,0,.26.35l5.88,1.32a.33.33,0,0,0,.39-.25,62.24,62.24,0,0,0,.55-11.43.32.32,0,0,0-.26-.29Z"/><path class="cls-1" d="M56,74.34c0,.36,0,.71-.08,1.07a.33.33,0,0,1-.39.29c-1-.22-10.09-2.43-10.09-2.45L38,71.55a.32.32,0,0,1-.26-.31c0-2.08-.13-4.37-.28-5.35a.32.32,0,0,1,.39-.37l18,4.26a.33.33,0,0,1,.26.31C56.18,71.29,56.1,73.23,56,74.34Z"/><path class="cls-2" d="M31.44,102.33h-.2c-7.49.06-14.9-2.13-20-6.59a34.44,34.44,0,0,1-6.6-8.42C-.46,76.92,1,59.6,1.41,55.92a.65.65,0,0,1,.77-.57l14,2.61a.65.65,0,0,1,.53.7C15.12,75.6,15,96.94,31.44,102.33Z"/><path class="cls-3" d="M51.05,82.46a.65.65,0,0,0-.51-.59L38.07,79a.55.55,0,0,0-.21,0,.64.64,0,0,0-.57.5v0c0,.06,0,.12,0,.18-1,16.59-9,19.06-10.16,19.11a3.64,3.64,0,0,1-1.49-.21h0s1.53,1.2,2.18,1.58a14.91,14.91,0,0,0,4.66,2c4.35-.6,14.75-5.49,18.56-19.52l0-.13v-.07h0Z"/><path class="cls-2" d="M106.47,62.28l-.77,2.57a.81.81,0,0,1-.82.47H92.64l1.1-3.73H87.18L86,65.31H78.73L77.28,70.2h7.33L78.46,90.83a1.75,1.75,0,0,1-1.44.93H73.65L72.49,96h6.18a6.49,6.49,0,0,0,6-4L91.2,70.2H96.1L89.61,92c-.43,2.18.21,3.72,3.09,3.72h12.52l1.25-4.19h-9c-.41,0-.62-.15-.62-.47L103.1,70.2h3.44q3.71.23,4.12-1.87l1.78-6.05Z"/><path class="cls-2" d="M77.11,64.75c.42-.84,1.51-3.15,1.51-3.15H69.74L67.61,66a4.84,4.84,0,0,1-1.33,1.91,1.41,1.41,0,0,1-.53.23s-1.3.13-1.48.13H63.1l-1.75,6,4.05,0A8,8,0,0,0,67,74L60.41,96h6.11l8-27.06A21,21,0,0,0,77.11,64.75Z"/><path class="cls-2" d="M121,88.73l4.84-16.47H114.72l-1.15,4h4.65l-4.11,13.9a1.75,1.75,0,0,1-1.85,1.17h-1.13l-1.29,4.42h6.22a6.64,6.64,0,0,0,3.5-1.63q1,1.4,3.71,1.4h32.95l1.26-4.19H125.32C123,90.83,120.88,90,121,88.73Z"/><polygon class="cls-2" points="128.61 61.62 120.58 61.62 118.95 67.04 127.01 67.04 128.61 61.62"/><path class="cls-2" d="M132.15,89q3.91.23,5.15-2.33l3.09-6.3H133.6l-2.26,4.2q0,.7-1.24.7h-3.77L125.22,89Z"/><path class="cls-2" d="M161.72,69.34l1.36-4.65h-13l.91-3.08h-6.79l-.91,3.08h-3l0,0c.34-.69,1.48-3.06,1.48-3.06h-7.27l-2,4.05a4,4,0,0,1-1.09,1.56,3,3,0,0,1-1.65.3h-.8l-1.46,4.84h3.19A8,8,0,0,0,136.17,70l.67-.62h5.35l-1.32,4.46H128.17l-1.37,4.65h19.72l-2.28,7.72q-.83,2.8,3.29,2.8h10l1.17-4H153q-1.24,0-1-.7l1.56-5.85h6.19l1.38-4.65H147.66L149,69.34Z"/></svg>